<?xml version="1.0" encoding="utf-8"?>
<!DOCTYPE svg PUBLIC "-//W3C//DTD SVG 1.0//EN" "http://www.w3.org/TR/2001/REC-SVG-20010904/DTD/svg10.dtd">
<svg version="1.0" xmlns="http://www.w3.org/2000/svg" width="476px" height="374px" viewBox="0 0 476 374" preserveAspectRatio="xMidYMid meet">
 <g fill="#67de77">
  <path d="M140.20 327.20 c-5.80 -0.95 -11.75 -2.95 -17.20 -5.75 -15.70 -8.10 -26.45 -22.40 -29.95 -39.90 -1 -4.95 -1.05 -6.65 -1.05 -47.65 l0 -42.55 -6.35 -6.80 c-3.50 -3.75 -8.65 -9.15 -11.40 -12.05 -11.45 -12 -19.50 -20.65 -19.65 -21.05 -0.10 -0.25 29.20 -0.45 67.60 -0.45 l67.80 0 -0.10 21.85 -0.15 21.90 -27.40 0.15 -27.35 0.10 0.10 39.65 c0.15 37.45 0.20 39.70 1.10 41.45 2.30 4.65 7.65 7.90 12.95 7.90 4.05 0 7 -1.75 11.65 -6.85 2.15 -2.40 4.65 -5.05 5.45 -5.90 0.85 -0.85 3.40 -3.65 5.75 -6.25 2.35 -2.60 4.60 -5.10 5 -5.50 0.40 -0.40 1.85 -2 3.20 -3.50 1.35 -1.50 3.60 -4 5 -5.50 1.40 -1.50 5.15 -5.55 8.30 -9 3.15 -3.45 5.85 -6.35 6 -6.50 0.15 -0.15 2.40 -2.60 5 -5.50 2.60 -2.90 4.85 -5.35 5 -5.50 0.15 -0.15 2.60 -2.85 5.50 -6 2.90 -3.15 6.60 -7.20 8.30 -9 1.70 -1.80 5.60 -6.05 8.70 -9.50 7.45 -8.20 14.45 -15.90 18.50 -20.25 1.80 -1.90 4.50 -4.85 6 -6.50 1.45 -1.65 3.95 -4.35 5.45 -6 1.55 -1.65 5.15 -5.60 8.05 -8.75 2.90 -3.15 5.75 -6.25 6.45 -6.90 l1.15 -1.15 28.70 0.10 c15.80 0.05 28.85 0.30 29 0.50 0.10 0.20 -0.30 0.90 -0.90 1.55 -0.65 0.65 -4.95 5.30 -9.60 10.40 -4.65 5.10 -10.65 11.60 -13.30 14.50 -2.65 2.90 -7.60 8.30 -11 12 -3.40 3.70 -8.35 9.10 -11 12 -2.65 2.90 -8.60 9.40 -13.25 14.50 -4.65 5.10 -9.70 10.60 -11.25 12.25 -5.10 5.50 -8.75 9.50 -11.25 12.25 -1.40 1.55 -4.95 5.45 -8 8.70 -3 3.25 -5.80 6.40 -6.20 7 -0.60 1.05 -0.20 1.75 6.70 11.10 8.55 11.60 10.55 13.75 14.25 15.60 2.40 1.20 3.35 1.35 7.50 1.35 4.35 0 5 -0.15 7.75 -1.55 3.25 -1.70 5.50 -3.95 15.25 -15.20 1.80 -2.05 6.75 -7.70 11 -12.50 4.25 -4.80 9.20 -10.45 11 -12.50 1.80 -2.05 3.35 -3.85 3.50 -4 0.15 -0.15 2.15 -2.40 4.50 -5 2.35 -2.60 4.35 -4.85 4.50 -5 0.15 -0.15 1.70 -1.95 3.50 -4 1.80 -2.05 3.95 -4.55 4.80 -5.50 0.85 -0.95 5.35 -6 9.95 -11.25 4.60 -5.20 9.80 -11.05 11.50 -13 1.70 -1.90 3.95 -4.50 5.05 -5.75 1.05 -1.25 2.05 -2.35 2.20 -2.50 0.15 -0.15 3.65 -4.05 7.75 -8.75 6.80 -7.80 14.65 -16.65 15.25 -17.25 0.15 -0.15 1.70 -1.95 3.50 -4 1.80 -2.05 4 -4.60 4.95 -5.60 5.75 -6.35 8.20 -13.65 7.05 -21.05 -1.50 -9.80 -7.70 -17.40 -16.50 -20.30 -3.15 -1.05 -3.50 -1.05 -87.75 -1.05 l-84.60 0 -7.70 -8.15 c-4.20 -4.45 -9.25 -9.80 -11.20 -11.85 -1.90 -2.05 -5.30 -5.65 -7.50 -8 -6.90 -7.30 -11.55 -12.20 -13.20 -14 l-1.65 -1.75 104.70 -0.15 c76.85 -0.10 105.85 0 109.15 0.40 8.65 1.15 15.05 3.05 22.70 6.85 17.05 8.45 30.90 26.45 35.05 45.65 0.35 1.50 0.85 3.75 1.15 5 0.30 1.25 0.55 6.10 0.55 10.75 0 6.95 -0.20 9.45 -1.15 13.70 -2.70 12.40 -7.85 22.60 -16.50 32.55 -3.05 3.55 -17.60 20.05 -20.50 23.25 -1 1.10 -5.05 5.70 -9.05 10.25 -3.95 4.55 -7.35 8.35 -7.50 8.50 -0.15 0.15 -5.10 5.75 -11 12.45 -15.75 17.90 -18.50 21.05 -26.30 29.85 -3.90 4.35 -9.95 11.20 -13.45 15.20 -3.50 4 -7.10 8.05 -7.95 9 -0.85 0.95 -5.55 6.30 -10.40 11.80 -12.05 13.75 -16.30 17.40 -25.20 21.95 -8 4.10 -18.90 6.75 -27.60 6.75 -12.05 0 -25.75 -4.75 -36.05 -12.50 -6.20 -4.70 -9.15 -8.05 -20.05 -22.90 -2.45 -3.30 -2.75 -3.60 -3.35 -2.80 -0.35 0.45 -2.05 2.35 -3.75 4.15 -1.75 1.80 -5.50 5.90 -8.40 9.05 -2.85 3.15 -6.60 7.10 -8.25 8.75 -12.35 12.45 -30.50 18.35 -47.55 15.45z"/>
 </g>
</svg>