<svg width="21" height="25" viewBox="0 0 21 25" fill="none" xmlns="http://www.w3.org/2000/svg">
<g clip-path="url(#clip0_45_108)">
<path d="M19.6464 8.62838C19.5072 8.73638 17.0496 10.1212 17.0496 13.2004C17.0496 16.762 20.1768 18.022 20.2704 18.0532C20.256 18.13 19.7736 19.7788 18.6216 21.4588C17.5944 22.9372 16.5216 24.4132 14.8896 24.4132C13.2576 24.4132 12.8376 23.4652 10.9536 23.4652C9.11759 23.4652 8.46479 24.4444 6.97199 24.4444C5.47919 24.4444 4.43759 23.0764 3.23999 21.3964C1.85279 19.4236 0.731995 16.3588 0.731995 13.45C0.731995 8.78438 3.76559 6.30998 6.75119 6.30998C8.33759 6.30998 9.65999 7.35158 10.656 7.35158C11.604 7.35158 13.0824 6.24758 14.8872 6.24758C15.5712 6.24758 18.0288 6.30998 19.6464 8.62838ZM14.0304 4.27238C14.7768 3.38678 15.3048 2.15798 15.3048 0.929177C15.3048 0.758777 15.2904 0.585977 15.2592 0.446777C14.0448 0.492377 12.6 1.25558 11.7288 2.26598C11.0448 3.04358 10.4064 4.27238 10.4064 5.51798C10.4064 5.70518 10.4376 5.89238 10.452 5.95238C10.5288 5.96678 10.6536 5.98358 10.7784 5.98358C11.868 5.98358 13.2384 5.25398 14.0304 4.27238Z" fill="black"/>
</g>
<defs>
<clipPath id="clip0_45_108">
<rect width="19.536" height="24" fill="white" transform="translate(0.731995 0.446777)"/>
</clipPath>
</defs>
</svg>
