<svg width="26" height="25" viewBox="0 0 26 25" fill="none" xmlns="http://www.w3.org/2000/svg">
<g clip-path="url(#clip0_45_115)">
<path fill-rule="evenodd" clip-rule="evenodd" d="M12.9635 0.446777C6.20975 0.446777 0.75 5.94678 0.75 12.751C0.75 18.19 4.24825 22.794 9.10125 24.4235C9.708 24.546 9.93025 24.1588 9.93025 23.833C9.93025 23.5478 9.91025 22.57 9.91025 21.5513C6.51275 22.2848 5.80525 20.0845 5.80525 20.0845C5.25925 18.6585 4.45025 18.292 4.45025 18.292C3.33825 17.5383 4.53125 17.5383 4.53125 17.5383C5.76475 17.6198 6.412 18.8013 6.412 18.8013C7.50375 20.6753 9.263 20.1458 9.97075 19.8198C10.0717 19.0253 10.3955 18.4753 10.7393 18.1698C8.0295 17.8845 5.1785 16.8253 5.1785 12.099C5.1785 10.7545 5.6635 9.65453 6.432 8.79903C6.31075 8.49353 5.886 7.23028 6.5535 5.53953C6.5535 5.53953 7.58475 5.21353 9.91 6.80253C10.9055 6.53319 11.9322 6.39618 12.9635 6.39503C13.9948 6.39503 15.046 6.53778 16.0168 6.80253C18.3423 5.21353 19.3735 5.53953 19.3735 5.53953C20.041 7.23028 19.616 8.49353 19.4947 8.79903C20.2835 9.65453 20.7485 10.7545 20.7485 12.099C20.7485 16.8253 17.8975 17.864 15.1675 18.1698C15.6125 18.5568 15.9965 19.29 15.9965 20.4513C15.9965 22.1013 15.9765 23.4255 15.9765 23.8328C15.9765 24.1588 16.199 24.546 16.8055 24.4238C21.6585 22.7938 25.1567 18.19 25.1567 12.751C25.1768 5.94678 19.697 0.446777 12.9635 0.446777Z" fill="#24292F"/>
</g>
<defs>
<clipPath id="clip0_45_115">
<rect width="24.5" height="24" fill="white" transform="translate(0.75 0.446777)"/>
</clipPath>
</defs>
</svg>
