<svg width="24" height="25" viewBox="0 0 24 25" fill="none" xmlns="http://www.w3.org/2000/svg">
<path d="M22.56 12.6968C22.56 11.9168 22.49 11.1668 22.36 10.4468H12V14.7068H17.92C17.66 16.0768 16.88 17.2368 15.71 18.0168V20.7868H19.28C21.36 18.8668 22.56 16.0468 22.56 12.6968Z" fill="#4285F4"/>
<path d="M12 23.4468C14.97 23.4468 17.46 22.4668 19.28 20.7868L15.71 18.0168C14.73 18.6768 13.48 19.0768 12 19.0768C9.13999 19.0768 6.70999 17.1468 5.83999 14.5468H2.17999V17.3868C3.98999 20.9768 7.69999 23.4468 12 23.4468Z" fill="#34A853"/>
<path d="M5.84 14.5367C5.62 13.8767 5.49 13.1767 5.49 12.4467C5.49 11.7167 5.62 11.0167 5.84 10.3567V7.51672H2.18C1.43 8.99672 1 10.6667 1 12.4467C1 14.2267 1.43 15.8967 2.18 17.3767L5.03 15.1567L5.84 14.5367Z" fill="#FBBC05"/>
<path d="M12 5.82678C13.62 5.82678 15.06 6.38678 16.21 7.46678L19.36 4.31678C17.45 2.53678 14.97 1.44678 12 1.44678C7.69999 1.44678 3.98999 3.91678 2.17999 7.51678L5.83999 10.3568C6.70999 7.75678 9.13999 5.82678 12 5.82678Z" fill="#EA4335"/>
</svg>
